<?xml version="1.0" standalone="no"?>
<!DOCTYPE svg PUBLIC "-//W3C//DTD SVG 20010904//EN"
 "http://www.w3.org/TR/2001/REC-SVG-20010904/DTD/svg10.dtd">
<svg version="1.0" xmlns="http://www.w3.org/2000/svg"
 width="254.000000pt" height="283.000000pt" viewBox="0 0 254.000000 283.000000"
 preserveAspectRatio="xMidYMid meet">

<g transform="translate(0.000000,283.000000) scale(0.100000,-0.100000)"
fill="#000000" stroke="none">
<path d="M0 1415 l0 -1415 1270 0 1270 0 0 1415 0 1415 -1270 0 -1270 0 0
-1415z m1591 887 c64 -17 161 -49 214 -73 l97 -42 -4 -281 c-5 -266 -7 -286
-32 -381 -33 -120 -75 -211 -132 -285 -103 -133 -235 -231 -406 -300 l-58 -24
-57 24 c-86 35 -208 107 -229 135 -10 14 -25 25 -33 25 -17 0 -123 108 -165
168 -30 44 -28 70 4 50 10 -7 16 -16 13 -21 -3 -4 4 -11 16 -14 11 -3 18 -10
15 -15 -3 -5 3 -4 13 2 17 11 26 5 79 -50 68 -72 191 -156 282 -195 l64 -26
64 30 c184 86 336 229 407 382 9 19 30 52 47 73 16 22 30 45 30 52 0 21 -10
17 -19 -9 -15 -38 -110 -104 -176 -122 -65 -17 -139 -8 -199 22 -37 19 -116
92 -115 107 0 6 18 26 39 44 l38 32 21 -35 c57 -97 185 -110 272 -27 111 106
50 295 -99 310 -69 6 -115 -12 -159 -62 l-38 -43 -38 32 c-20 18 -37 36 -37
42 0 16 74 81 120 105 37 19 60 23 130 23 104 0 146 -19 214 -97 l46 -53 -2
163 -3 164 -70 30 c-283 121 -651 121 -950 1 l-70 -28 -5 -161 c-5 -157 -6
-161 -32 -193 -16 -18 -28 -40 -29 -49 0 -14 -2 -13 -9 3 -5 11 -9 117 -9 236
l-1 216 58 26 c91 41 190 74 287 96 130 29 134 30 320 26 149 -3 184 -7 286
-33z m-527 -356 c49 -15 120 -63 149 -103 17 -22 17 -23 -20 -57 l-38 -35 -15
22 c-65 97 -182 121 -271 54 -75 -55 -91 -191 -31 -266 75 -94 205 -95 283 -2
l34 40 39 -33 38 -33 -47 -46 c-94 -93 -227 -112 -340 -47 -149 85 -189 265
-89 402 72 100 189 140 308 104z m245 -191 c56 -29 63 -106 14 -145 -37 -29
-79 -26 -114 9 -43 44 -33 106 22 137 31 17 44 17 78 -1z m-474 -455 c3 -5 -1
-10 -10 -10 -9 0 -13 5 -10 10 3 6 8 10 10 10 2 0 7 -4 10 -10z m622 -594 c50
-59 16 -131 -68 -142 -41 -6 -49 -10 -49 -28 0 -31 -15 -48 -36 -44 -17 3 -19
15 -22 112 -1 61 0 116 3 124 4 12 20 14 77 10 62 -5 75 -9 95 -32z m-982 -48
c32 -40 61 -74 66 -76 5 -2 9 30 9 72 0 69 2 76 20 76 19 0 20 -7 20 -116 0
-113 0 -115 -22 -112 -14 2 -43 30 -76 73 -30 39 -58 72 -63 73 -5 2 -9 -30
-9 -72 0 -69 -2 -76 -20 -76 -19 0 -20 7 -20 115 0 107 1 115 19 115 13 0 41
-27 76 -72z m625 37 c0 -20 5 -25 25 -25 32 0 34 -27 3 -32 -20 -3 -23 -9 -23
-53 0 -44 3 -50 23 -53 37 -6 27 -32 -13 -32 -43 0 -55 20 -55 89 0 28 -4 51
-10 51 -5 0 -10 7 -10 15 0 8 5 15 10 15 6 0 10 11 10 25 0 18 5 25 20 25 15
0 20 -7 20 -25z m-335 -30 c21 -8 39 -25 45 -40 19 -50 15 -54 -62 -57 -70 -3
-71 -3 -53 -22 15 -14 28 -17 62 -12 24 3 43 2 43 -2 0 -19 -27 -32 -66 -32
-97 0 -129 127 -42 165 41 18 33 18 73 0z m805 5 c0 -7 6 -7 19 0 29 15 41 12
41 -11 0 -13 -10 -23 -30 -30 -27 -10 -29 -14 -32 -72 -3 -56 -5 -62 -25 -65
-22 -3 -23 -1 -23 92 0 96 0 96 25 96 14 0 25 -5 25 -10z m249 -26 c19 -23 22
-35 18 -68 -15 -107 -167 -115 -193 -10 -9 34 18 91 48 104 40 17 100 4 127
-26z m109 9 l19 -26 18 26 c11 17 26 27 41 27 30 0 30 -2 -3 -51 l-26 -40 31
-44 c32 -46 32 -55 -3 -55 -13 0 -28 12 -39 31 l-19 31 -24 -31 c-23 -30 -63
-43 -63 -20 0 6 11 25 25 43 14 18 25 37 25 42 0 5 -11 26 -25 46 -31 46 -31
48 -1 48 15 0 32 -11 44 -27z m191 -33 c12 -33 24 -60 25 -60 2 0 14 27 26 60
19 50 26 60 46 60 13 0 24 -3 24 -6 0 -3 -13 -38 -29 -77 -16 -40 -34 -86 -41
-104 -17 -46 -42 -65 -82 -61 -38 3 -47 31 -11 36 44 6 45 25 8 112 -19 45
-35 86 -35 91 0 5 11 9 24 9 19 0 27 -10 45 -60z m-1219 43 c0 -5 7 -17 15
-27 14 -19 15 -18 36 7 11 15 29 27 40 27 18 0 17 -3 -8 -41 -22 -33 -25 -44
-15 -57 6 -10 19 -29 27 -44 15 -26 14 -28 -4 -28 -11 0 -29 12 -40 28 l-21
27 -23 -27 c-12 -16 -30 -28 -40 -28 -23 0 -22 7 8 46 31 40 31 41 0 87 l-26
37 26 0 c14 0 25 -3 25 -7z m-271 -359 c-28 -33 -70 -4 -68 48 1 25 4 19 13
-25 5 -22 12 -28 29 -25 18 2 23 11 26 43 5 40 5 40 9 7 2 -18 -2 -40 -9 -48z
m488 9 c-2 -16 -4 -5 -4 22 0 28 2 40 4 28 2 -13 2 -35 0 -50z m123 58 c0 -5
-8 -7 -19 -4 -25 6 -38 -15 -14 -24 30 -10 42 -24 36 -39 -6 -15 -48 -19 -57
-5 -3 4 6 6 19 3 33 -6 33 15 0 30 -24 11 -32 28 -18 41 10 10 53 8 53 -2z
m475 -21 c0 -18 -6 -26 -22 -28 -13 -2 -23 -10 -23 -18 0 -8 -4 -14 -10 -14
-5 0 -10 21 -10 46 0 45 0 45 33 42 27 -2 32 -7 32 -28z m-998 -30 c1 -19 -1
-26 -3 -15 -11 45 -13 48 -29 35 -7 -6 -16 -21 -18 -33 -3 -13 -5 -8 -6 14 -1
33 1 36 27 35 24 -1 27 -5 29 -36z m74 13 l11 -28 13 25 c17 29 19 22 5 -14
-11 -30 -25 -34 -33 -8 -2 9 -8 25 -12 35 -4 9 -4 17 -1 17 4 0 11 -12 17 -27z
m107 15 c19 -19 14 -28 -13 -28 -31 0 -33 -17 -2 -23 19 -4 19 -4 -5 -6 -19
-1 -29 5 -33 19 -12 37 27 64 53 38z m55 -5 c-7 -3 -13 -16 -13 -29 0 -13 -4
-24 -10 -24 -18 0 -11 58 8 62 20 5 32 -3 15 -9z m62 7 c3 -6 -1 -7 -9 -4 -21
8 -20 -6 2 -22 21 -16 4 -38 -24 -31 -14 4 -13 5 6 6 l25 1 -24 19 c-13 10
-21 23 -17 30 9 14 33 14 41 1z m73 -28 c3 -31 2 -33 -25 -30 -35 4 -37 30 -3
38 17 4 21 8 12 14 -6 4 -17 4 -24 0 -7 -4 -8 -3 -4 5 15 23 41 7 44 -27z
m216 32 c26 -10 18 -32 -11 -36 l-28 -4 25 -12 25 -12 -25 3 c-28 2 -41 44
-18 58 16 11 13 10 32 3z m80 -3 c3 -5 -2 -8 -12 -7 -11 0 -18 -7 -20 -21 -3
-18 2 -23 20 -24 18 -1 19 -2 5 -6 -18 -5 -47 12 -47 28 0 10 29 39 40 39 5 0
11 -4 14 -9z m56 -46 c8 0 18 13 21 30 6 29 7 28 8 -8 1 -36 -1 -38 -26 -35
-24 3 -28 8 -30 38 -1 34 -1 34 5 5 4 -17 14 -30 22 -30z m78 38 c-9 -10 -18
-27 -21 -38 -3 -13 -5 -9 -6 12 -1 22 4 33 17 36 9 3 19 5 21 6 2 0 -3 -7 -11
-16z m66 11 c25 -10 19 -34 -9 -34 -28 0 -34 -16 -7 -23 13 -3 12 -4 -3 -3
-24 1 -34 44 -13 57 16 11 13 10 32 3z m186 -6 c0 -4 -4 -8 -9 -8 -5 0 -12
-12 -14 -27 -3 -24 -4 -22 -6 8 -1 26 3 36 14 36 8 0 15 -4 15 -9z m70 -3 c6
-8 10 -22 8 -32 -4 -24 -47 -24 -62 0 -9 15 -7 21 8 33 25 18 31 18 46 -1z
m65 -5 c-4 -12 -1 -27 5 -35 8 -10 9 -15 2 -15 -6 0 -14 5 -17 10 -5 8 -12 7
-23 -2 -13 -11 -14 -11 -4 8 8 16 8 24 -1 34 -10 10 -7 11 11 5 13 -4 22 -2
22 4 0 6 3 11 6 11 3 0 2 -9 -1 -20z m66 -34 c-11 -25 -26 -46 -32 -46 -9 0
-9 3 0 14 8 10 8 21 1 40 -14 38 -12 46 5 16 l13 -25 12 29 c6 16 13 27 16 24
2 -3 -4 -26 -15 -52z m-1214 -3 c-3 -10 -5 -2 -5 17 0 19 2 27 5 18 2 -10 2
-26 0 -35z"/>
<path d="M1340 650 l0 -41 36 3 c43 4 65 29 48 56 -6 10 -26 18 -48 20 l-36 3
0 -41z"/>
<path d="M692 628 c-22 -22 -13 -28 38 -28 28 0 50 4 50 8 0 16 -25 32 -50 32
-14 0 -31 -5 -38 -12z"/>
<path d="M1710 620 c-11 -11 -20 -27 -20 -35 0 -16 34 -55 48 -55 4 0 18 7 30
16 28 20 28 58 0 78 -29 20 -34 20 -58 -4z"/>
<path d="M1670 350 c0 -15 5 -20 18 -18 9 2 17 10 17 18 0 8 -8 16 -17 18 -13
2 -18 -3 -18 -18z"/>
<path d="M865 340 c-3 -5 1 -10 9 -10 9 0 16 5 16 10 0 6 -4 10 -9 10 -6 0
-13 -4 -16 -10z"/>
<path d="M1050 310 c0 -5 4 -10 9 -10 6 0 13 5 16 10 3 6 -1 10 -9 10 -9 0
-16 -4 -16 -10z"/>
<path d="M1275 340 c-3 -5 3 -10 15 -10 12 0 18 5 15 10 -3 6 -10 10 -15 10
-5 0 -12 -4 -15 -10z"/>
<path d="M1555 340 c-3 -5 3 -10 15 -10 12 0 18 5 15 10 -3 6 -10 10 -15 10
-5 0 -12 -4 -15 -10z"/>
<path d="M1800 335 c-10 -11 -10 -19 -2 -27 15 -15 44 -2 40 19 -4 23 -22 27
-38 8z"/>
</g>
</svg>
